<?xml version="1.0" encoding="utf-8"?>
<svg version="1.2" baseProfile="tiny-ps" xmlns="http://www.w3.org/2000/svg" width="900px" height="240px" viewBox="0 0 900 240" preserveAspectRatio="xMidYMid meet">
 <g fill="#fcfcfc">
  <path d="M433.8 185.7 c-5.6 -1.6 -13.1 -6.4 -12.3 -7.8 0.4 -0.5 0.1 -0.8 -0.6 -0.7 -0.7 0.2 -1.3 -0.4 -1.4 -1.2 0 -0.8 -0.6 -1.4 -1.3 -1.3 -1.6 0.4 -5.7 -6.3 -7.9 -12.8 -2.8 -8.4 -2.5 -27.5 0.6 -35.2 4.3 -10.7 12.7 -19 22.4 -21.9 6.3 -1.9 20.2 -1.6 26.5 0.6 7.4 2.5 16.1 10.8 19.5 18.4 7.9 17.5 4.6 41.3 -7.3 53.2 -6.5 6.5 -13.7 9.3 -24.5 9.7 -5.3 0.2 -10.9 -0.3 -13.7 -1z m20.7 -12.6 c2.3 -1 5.4 -3.3 6.9 -5.2 8.5 -10 9.6 -29.3 2.5 -41.7 -9.1 -16 -30.2 -14.3 -38 3.1 -2.1 4.5 -2.4 6.7 -2.4 16.2 0 12.7 1.7 17.7 7.9 23.5 6.4 6 15.4 7.6 23.1 4.1z"/>
  <path d="M523.9 185.6 c-6.1 -1.6 -10.5 -4.9 -13.2 -9.9 -2 -4 -2.2 -5.6 -2.5 -31.9 l-0.4 -27.8 -5.9 0 -5.9 0 0 -6 0 -6 6 0 6 0 0 -10 0 -10 7.5 0 7.5 0 0 10 0 10 8.5 0 8.5 0 0 6 0 6 -8.5 0 -8.5 0 0 24 c0 30.6 0.8 33 11 33.3 4.9 0.2 5.1 0.3 6 3.7 1.9 7.5 1.7 8.4 -1.5 9.1 -4.7 1 -9.6 0.9 -14.6 -0.5z"/>
  <path d="M579.6 185 c-7.1 -2.5 -10.8 -4.9 -9.9 -6.3 0.3 -0.5 0.1 -0.7 -0.4 -0.4 -1.5 1 -8.1 -6.6 -10.3 -11.8 -4.7 -11.1 -5.2 -28.8 -1 -39.8 5.9 -15.5 20.4 -24.8 36.9 -23.4 8.8 0.7 13 2.1 18.8 6.1 8.7 5.9 13.8 17.1 14.6 31.9 l0.4 7.7 -29.3 0 -29.4 0 0 3.1 c0 8.4 5.9 17.6 13.4 21 5.4 2.4 14.8 2.4 20.1 0 3.7 -1.7 9.5 -7.2 9.5 -9 0 -0.8 12.7 1.3 13.6 2.2 1 1 -2.9 7.9 -6.4 11.3 -1.9 1.9 -6 4.6 -9.1 6.1 -7.7 3.8 -22.6 4.4 -31.5 1.3z m34 -51.2 c-1 -6.1 -4.5 -11.8 -9.4 -15.3 -3.9 -2.7 -5.2 -3 -11.7 -3 -6.5 0 -7.8 0.3 -11.6 3 -5.7 4 -9.9 10.1 -10.6 15.3 l-0.6 4.2 22.3 0 22.3 0 -0.7 -4.2z"/>
  <path d="M668.3 186 c-5.8 -1.2 -9.4 -3.2 -13.6 -7.9 -6.1 -6.8 -6.7 -10.5 -6.7 -44.3 l0 -29.8 7.5 0 7.5 0 0 28.3 c0 27.3 0.1 28.3 2.3 32.1 3.6 6.4 6.8 8.1 14.7 8.1 6 0 7.4 -0.4 11.2 -3 2.5 -1.8 5.2 -4.9 6.6 -7.5 2.1 -4.3 2.2 -5.4 2.2 -31.2 l0 -26.8 7.5 0 7.5 0 0 41 0 41 -7.5 0 -7.4 0 -0.3 -7.7 -0.3 -7.8 -2.3 3.8 c-1.3 2 -2.8 3.4 -3.4 3.1 -0.6 -0.4 -0.8 -0.2 -0.5 0.4 1.1 1.6 -4.9 6 -10.5 7.7 -5.6 1.6 -8.1 1.7 -14.5 0.5z"/>
  <path d="M260 130.9 l0 -55.1 24.8 0.4 c23.6 0.4 25 0.6 30.9 3 9.8 4 15.2 9.4 18.8 19.2 2.3 5.9 2.6 19.2 0.6 25.1 -2.1 6.3 -6.7 12.9 -11.3 16.2 -7.6 5.4 -12.6 6.6 -31 7.1 l-16.8 0.4 0 19.4 0 19.4 -8 0 -8 0 0 -55.1z m46.6 1.6 c9 -2.6 14.4 -10.7 14.4 -21.2 0 -6.5 -2.4 -12.5 -6.1 -16 -4.8 -4.4 -9 -5.3 -24.2 -5.4 l-14.2 -0.1 -0.3 22.1 -0.2 22.1 12.8 0 c8.4 0 14.6 -0.5 17.8 -1.5z"/>
  <path d="M356 145 l0 -41 7.3 0 7.2 0 -0.1 6.5 c-0.1 7.1 1.4 8.6 3.3 3.4 0.8 -2 1.6 -2.8 2.4 -2.3 0.7 0.4 0.9 0.3 0.6 -0.3 -0.9 -1.4 3 -4.9 7.5 -6.8 2.1 -0.8 6.2 -1.5 9.3 -1.5 l5.5 0 0 6.9 0 6.8 -6.9 -0.1 c-6 0 -7.5 0.4 -11.7 2.9 -3.1 2 -5.6 4.5 -7.1 7.4 -2.2 4.3 -2.3 5.1 -2.3 31.8 l0 27.3 -7.5 0 -7.5 0 0 -41z"/>
  <path d="M772.4 183.8 c0.3 -1.3 9.2 -25.9 19.9 -54.8 l19.3 -52.5 6.4 -0.3 6.5 -0.3 20.1 54.8 20.1 54.8 -6 0.3 c-4.1 0.2 -6.3 -0.1 -6.8 -1 -0.4 -0.7 -2.9 -7.3 -5.5 -14.8 -2.6 -7.4 -5.2 -14.1 -5.7 -14.8 -0.7 -0.9 -6.1 -1.2 -23.1 -1 l-22.1 0.3 -5.6 15.5 -5.6 15.5 -6.3 0.3 c-6.1 0.3 -6.2 0.2 -5.6 -2z m64.3 -41 c-0.2 -0.7 -4.2 -11.9 -8.7 -24.8 -8.1 -23 -9.4 -25.9 -10.5 -24.8 -0.9 0.9 -17.5 47.8 -17.5 49.4 0 1.1 3.4 1.4 18.6 1.4 14.5 0 18.5 -0.3 18.1 -1.2z"/>
  <path d="M883 131 l0 -55 6.5 0 6.5 0 0 55 0 55 -6.5 0 -6.5 0 0 -55z"/>
  <path d="M82.5 171.3 c-13.7 -7.4 -37.1 -19.9 -52 -27.8 -14.8 -8 -27.6 -14.8 -28.4 -15.2 -1.1 -0.7 -0.7 -2.1 1.9 -7.3 4.9 -9.7 9.5 -20.6 16.6 -39.4 7.8 -20.8 12.5 -28.9 22.3 -38.6 8.7 -8.7 17.2 -14 28 -17.7 10.1 -3.4 26.5 -3.6 38.5 -0.4 18.6 4.9 33.3 17.1 39.2 32.4 2.8 7.2 7.7 12.3 15.6 16.3 l6.9 3.5 -1.7 2.8 c-1.7 2.8 -1.7 3 0.9 6 4.2 5 5.1 9.3 3.3 14.8 -2.5 7.3 -5.7 9.9 -16.1 13.2 -14.1 4.6 -22 4.9 -36.2 1.4 -4.6 -1.1 -2.1 1.5 3.9 4.2 9.9 4.4 23.2 3.5 37.4 -2.5 2.6 -1.1 4.9 -1.8 5.2 -1.5 1 0.9 -4.9 8.5 -8.7 11.3 -3.3 2.4 -5.7 3.1 -14.3 4.1 -17.7 2.1 -23.7 4.2 -29.5 10.3 -4.2 4.3 -8 12.9 -8.8 19.9 -0.6 4.9 0.6 17.1 2.1 22.2 0.3 0.9 0.2 1.7 -0.3 1.6 -0.4 0 -12 -6.1 -25.8 -13.6z"/>
  <path d="M171 112.1 c0 -0.7 1.1 -2.7 2.4 -4.4 6.4 -8.6 7.2 -15.6 2.3 -22 -2.1 -2.8 -2.3 -3.5 -1.2 -5.1 1.2 -1.6 1.7 -1.6 4.9 -0.5 2 0.7 3.6 1.8 3.7 2.4 0.7 6 -5 21.6 -10.2 28.4 -1.1 1.3 -1.9 1.8 -1.9 1.2z"/>
  <path d="M205.1 89.2 l-2.2 -7.8 -8.7 -2.4 -8.6 -2.4 8.1 -2.6 c4.5 -1.4 8.5 -2.8 8.8 -3.2 0.4 -0.4 1.8 -4.2 3 -8.5 1.3 -4.3 2.4 -7.6 2.5 -7.3 0 0.3 1.3 4.1 2.8 8.5 l2.7 8 8.4 2.5 8.3 2.5 -8.6 2.4 -8.5 2.4 -2.2 7.4 c-1.2 4.1 -2.5 7.6 -2.9 7.8 -0.4 0.2 -1.7 -3.1 -2.9 -7.3z"/>
 </g>
 <g fill="#848484">
  <path d="M134 110.7 c0.3 -0.3 4.7 -1.5 9.7 -2.6 5 -1.1 12.1 -3.1 15.7 -4.5 3.6 -1.3 6.6 -2.2 6.6 -2 0 0.9 -8.1 4.4 -14.5 6.2 -7 2.1 -18.5 4 -17.5 2.9z"/>
  <path d="M133.2 99.6 c-2.3 -0.8 -4.9 -2 -5.7 -2.6 -3.1 -2.6 -1.3 -2.7 4.7 -0.3 5.9 2.4 7 2.5 20.3 2.1 9 -0.3 12.9 -0.2 11 0.4 -5.6 1.7 -25.6 1.9 -30.3 0.4z"/>
  <path d="M150 93.1 c-3.4 -1.1 -11.3 -5.1 -10.8 -5.6 0.2 -0.2 2.7 0.7 5.5 2.1 3.2 1.6 8 2.9 12.5 3.4 l7.3 0.7 -6 0.1 c-3.3 0 -7.1 -0.3 -8.5 -0.7z"/>
 </g>
</svg>